<svg xmlns="http://www.w3.org/2000/svg" xmlns:xlink="http://www.w3.org/1999/xlink" width="181px" height="128px" viewBox="0 0 1485 1050" version="1.1">
<g id="surface1">
<path style=" stroke:none;fill-rule:nonzero;fill:rgb(0.784314%,41.176471%,21.960784%);fill-opacity:1;" d="M 653.785156 318.113281 L 653.785156 366.9375 C 653.785156 366.9375 653.804688 366.992188 653.839844 366.992188 L 713.84375 366.992188 C 719.238281 366.992188 723.59375 371.367188 723.59375 376.746094 L 723.59375 402.5 C 723.59375 407.894531 719.222656 412.253906 713.84375 412.253906 L 609.589844 412.253906 C 596.300781 412.253906 584.964844 422.589844 584.507812 435.871094 C 584.046875 449.769531 595.152344 461.183594 608.9375 461.183594 L 653.925781 461.183594 C 691.652344 461.183594 723.136719 491.222656 723.59375 528.96875 C 724.050781 567.261719 693.167969 598.464844 655.003906 598.464844 L 653.785156 598.464844 C 653.785156 598.464844 653.785156 647.34375 653.785156 647.34375 C 653.785156 647.378906 653.804688 647.394531 653.839844 647.394531 L 817.21875 647.394531 C 830.507812 647.394531 841.84375 637.058594 842.300781 623.777344 C 842.761719 609.878906 831.65625 598.464844 817.871094 598.464844 L 782.261719 598.464844 C 776.867188 598.464844 772.511719 594.089844 772.511719 588.710938 L 772.511719 376.730469 C 772.511719 371.332031 776.882812 366.972656 782.261719 366.972656 L 817.234375 366.972656 C 830.527344 366.972656 841.863281 356.636719 842.320312 343.355469 C 842.777344 329.457031 831.671875 318.042969 817.886719 318.042969 L 653.855469 318.042969 C 653.855469 318.042969 653.804688 318.0625 653.804688 318.097656 Z M 653.785156 318.113281 "/>
<path style=" stroke:none;fill-rule:nonzero;fill:rgb(0.784314%,41.176471%,21.960784%);fill-opacity:1;" d="M 444.835938 318.042969 C 431.050781 318.042969 419.929688 329.457031 420.40625 343.355469 C 420.84375 356.636719 432.199219 366.972656 445.488281 366.972656 L 480.464844 366.972656 C 485.859375 366.972656 490.210938 371.347656 490.210938 376.730469 L 490.210938 588.710938 C 490.210938 594.109375 485.839844 598.464844 480.464844 598.464844 L 445.488281 598.464844 C 432.199219 598.464844 420.863281 608.800781 420.40625 622.082031 C 419.945312 635.984375 431.050781 647.394531 444.835938 647.394531 L 608.867188 647.394531 C 608.867188 647.394531 608.921875 647.378906 608.921875 647.34375 L 608.921875 598.519531 C 608.921875 598.519531 608.902344 598.464844 608.867188 598.464844 L 548.863281 598.464844 C 543.46875 598.464844 539.113281 594.089844 539.113281 588.710938 L 539.113281 565.164062 C 539.113281 559.765625 543.484375 555.410156 548.863281 555.410156 L 653.679688 555.410156 C 666.972656 555.410156 678.304688 545.074219 678.765625 531.789062 C 679.222656 517.890625 668.101562 506.480469 654.332031 506.480469 L 609.925781 506.480469 C 571.585938 506.480469 539.589844 475.964844 539.132812 437.601562 C 538.65625 398.6875 570.050781 366.992188 608.832031 366.992188 L 608.9375 366.992188 C 608.9375 366.992188 608.9375 318.113281 608.9375 318.113281 C 608.9375 318.078125 608.921875 318.0625 608.886719 318.0625 L 444.855469 318.0625 Z M 444.835938 318.042969 "/>
<path style=" stroke:none;fill-rule:nonzero;fill:rgb(0.784314%,41.176471%,21.960784%);fill-opacity:1;" d="M 801.210938 580.28125 L 872.042969 476.195312 L 812.441406 383.625 C 806.835938 374.648438 802.621094 366.9375 799.800781 360.484375 C 796.996094 354.046875 795.585938 347.855469 795.585938 341.910156 C 795.585938 335.964844 798.285156 330.355469 803.679688 325.503906 C 809.074219 320.65625 815.667969 318.222656 823.441406 318.222656 C 832.359375 318.222656 839.304688 320.867188 844.277344 326.160156 C 849.25 331.449219 856.125 341.257812 864.902344 355.597656 L 912.410156 432.941406 L 963.160156 355.597656 C 967.339844 349.070312 970.902344 343.496094 973.863281 338.859375 C 976.804688 334.21875 979.664062 330.390625 982.394531 327.339844 C 985.125 324.304688 988.175781 322.011719 991.5625 320.496094 C 994.945312 318.980469 998.859375 318.222656 1003.335938 318.222656 C 1011.394531 318.222656 1017.984375 320.65625 1023.097656 325.503906 C 1028.210938 330.355469 1030.765625 336.125 1030.765625 342.773438 C 1030.765625 352.476562 1025.230469 365.667969 1014.144531 382.320312 L 951.738281 476.195312 L 1018.902344 580.28125 C 1024.949219 589.398438 1029.339844 596.984375 1032.070312 602.980469 C 1034.804688 608.996094 1036.179688 614.675781 1036.179688 620.039062 C 1036.179688 625.117188 1034.960938 629.738281 1032.511719 633.953125 C 1030.0625 638.152344 1026.605469 641.488281 1022.144531 643.957031 C 1017.6875 646.425781 1012.644531 647.640625 1007.019531 647.640625 C 1000.976562 647.640625 995.863281 646.371094 991.683594 643.832031 C 987.507812 641.292969 984.121094 638.152344 981.53125 634.378906 C 978.9375 630.601562 974.109375 623.300781 967.058594 612.433594 L 911.351562 524.222656 L 852.191406 615.046875 C 847.574219 622.296875 844.3125 627.359375 842.371094 630.25 C 840.433594 633.144531 838.089844 635.984375 835.355469 638.71875 C 832.625 641.46875 829.382812 643.636719 825.644531 645.242188 C 821.890625 646.832031 817.515625 647.640625 812.476562 647.640625 C 804.703125 647.640625 798.25 645.242188 793.15625 640.480469 C 788.042969 635.699219 785.488281 628.75 785.488281 619.613281 C 785.488281 608.890625 790.738281 595.785156 801.246094 580.28125 Z M 801.210938 580.28125 "/>
<path style=" stroke:none;fill-rule:nonzero;fill:rgb(0.784314%,41.176471%,21.960784%);fill-opacity:1;" d="M 1053.894531 598.660156 C 1053.894531 598.660156 1079.171875 597.988281 1084.003906 619.949219 C 1084.003906 619.949219 1088.074219 642.527344 1056.769531 647.660156 L 1004.851562 647.660156 L 1004.851562 598.816406 Z M 1053.894531 598.660156 "/>
<path style=" stroke:none;fill-rule:nonzero;fill:rgb(0.784314%,41.176471%,21.960784%);fill-opacity:1;" d="M 1053.894531 318.007812 C 1053.894531 318.007812 1079.171875 317.339844 1084.003906 339.300781 C 1084.003906 339.300781 1088.074219 361.875 1056.769531 367.007812 L 1004.851562 367.007812 L 1004.851562 318.167969 Z M 1053.894531 318.007812 "/>
</g>
<div xmlns="" id="divScriptsUsed" style="display: none"/><script xmlns="" id="globalVarsDetection" src="chrome-extension://cmkdbmfndkfgebldhnkbfhlneefdaaip/js/wrs_env.js"/></svg>